<svg id="svg" fill="#767676" stroke="#767676" width="200" height="200" version="1.1" viewBox="144 144 512 512" xmlns="http://www.w3.org/2000/svg">
    <g id="IconSvg_bgCarrier" stroke-width="0"></g>
    <g id="IconSvg_tracerCarrier" stroke-linecap="round" stroke-linejoin="round" stroke="#CCCCCC" stroke-width="0">
      <path xmlns="http://www.w3.org/2000/svg" d="m521.34 341.64c-2.9492-2.9531-6.9531-4.6094-11.129-4.6094s-8.1797 1.6562-11.133 4.6094l-99.074 99.074-99.078-99.074c-4-3.8633-9.7383-5.332-15.102-3.8594-5.3633 1.4688-9.5508 5.6562-11.02 11.02-1.4727 5.3633-0.003906 11.102 3.8594 15.102l110.21 110.21c2.9531 2.9531 6.957 4.6094 11.133 4.6094 4.1719 0 8.1758-1.6562 11.129-4.6094l110.21-110.21c2.9531-2.9531 4.6133-6.957 4.6133-11.133s-1.6602-8.1797-4.6133-11.129z"></path>

      </g>
     <g id="IconSvg_iconCarrier">
      <path xmlns="http://www.w3.org/2000/svg" d="m521.34 341.64c-2.9492-2.9531-6.9531-4.6094-11.129-4.6094s-8.1797 1.6562-11.133 4.6094l-99.074 99.074-99.078-99.074c-4-3.8633-9.7383-5.332-15.102-3.8594-5.3633 1.4688-9.5508 5.6562-11.02 11.02-1.4727 5.3633-0.003906 11.102 3.8594 15.102l110.21 110.21c2.9531 2.9531 6.957 4.6094 11.133 4.6094 4.1719 0 8.1758-1.6562 11.129-4.6094l110.21-110.21c2.9531-2.9531 4.6133-6.957 4.6133-11.133s-1.6602-8.1797-4.6133-11.129z"></path>

      </g>
      </svg>